<mxfile host="app.diagrams.net" agent="Mozilla/5.0 (Windows NT 10.0; Win64; x64) AppleWebKit/537.36 (KHTML, like Gecko) Chrome/128.0.0.0 Safari/537.36" version="24.7.14">
  <diagram id="C5RBs43oDa-KdzZeNtuy" name="Page-1">
    <mxGraphModel dx="1372" dy="786" grid="1" gridSize="10" guides="1" tooltips="1" connect="1" arrows="1" fold="1" page="1" pageScale="1" pageWidth="827" pageHeight="1169" math="0" shadow="0">
      <root>
        <mxCell id="WIyWlLk6GJQsqaUBKTNV-0" />
        <mxCell id="WIyWlLk6GJQsqaUBKTNV-1" parent="WIyWlLk6GJQsqaUBKTNV-0" />
        <mxCell id="e6tLD3ZkIUnjQeMoBUxM-12" value="" style="edgeStyle=orthogonalEdgeStyle;rounded=0;orthogonalLoop=1;jettySize=auto;html=1;" edge="1" parent="WIyWlLk6GJQsqaUBKTNV-1" source="e6tLD3ZkIUnjQeMoBUxM-0" target="e6tLD3ZkIUnjQeMoBUxM-2">
          <mxGeometry relative="1" as="geometry" />
        </mxCell>
        <mxCell id="e6tLD3ZkIUnjQeMoBUxM-0" value="Start" style="ellipse;whiteSpace=wrap;html=1;fillColor=#d5e8d4;strokeColor=#82b366;" vertex="1" parent="WIyWlLk6GJQsqaUBKTNV-1">
          <mxGeometry x="140" y="40" width="120" height="80" as="geometry" />
        </mxCell>
        <mxCell id="e6tLD3ZkIUnjQeMoBUxM-1" value="End" style="ellipse;whiteSpace=wrap;html=1;fillColor=#d5e8d4;strokeColor=#82b366;" vertex="1" parent="WIyWlLk6GJQsqaUBKTNV-1">
          <mxGeometry x="20" y="560" width="120" height="80" as="geometry" />
        </mxCell>
        <mxCell id="e6tLD3ZkIUnjQeMoBUxM-13" value="" style="edgeStyle=orthogonalEdgeStyle;rounded=0;orthogonalLoop=1;jettySize=auto;html=1;" edge="1" parent="WIyWlLk6GJQsqaUBKTNV-1" source="e6tLD3ZkIUnjQeMoBUxM-2" target="e6tLD3ZkIUnjQeMoBUxM-3">
          <mxGeometry relative="1" as="geometry" />
        </mxCell>
        <mxCell id="e6tLD3ZkIUnjQeMoBUxM-2" value="Open dictionary" style="rounded=1;whiteSpace=wrap;html=1;fillColor=#fff2cc;strokeColor=#d6b656;" vertex="1" parent="WIyWlLk6GJQsqaUBKTNV-1">
          <mxGeometry x="140" y="220" width="120" height="60" as="geometry" />
        </mxCell>
        <mxCell id="e6tLD3ZkIUnjQeMoBUxM-4" value="" style="edgeStyle=orthogonalEdgeStyle;rounded=0;orthogonalLoop=1;jettySize=auto;html=1;exitX=0;exitY=0.5;exitDx=0;exitDy=0;" edge="1" parent="WIyWlLk6GJQsqaUBKTNV-1" source="e6tLD3ZkIUnjQeMoBUxM-3" target="e6tLD3ZkIUnjQeMoBUxM-1">
          <mxGeometry relative="1" as="geometry" />
        </mxCell>
        <mxCell id="e6tLD3ZkIUnjQeMoBUxM-5" value="YES, Congratulations!" style="edgeLabel;html=1;align=center;verticalAlign=middle;resizable=0;points=[];" vertex="1" connectable="0" parent="e6tLD3ZkIUnjQeMoBUxM-4">
          <mxGeometry x="-0.075" y="-4" relative="1" as="geometry">
            <mxPoint as="offset" />
          </mxGeometry>
        </mxCell>
        <mxCell id="e6tLD3ZkIUnjQeMoBUxM-22" value="" style="edgeStyle=orthogonalEdgeStyle;rounded=0;orthogonalLoop=1;jettySize=auto;html=1;entryX=0.5;entryY=0;entryDx=0;entryDy=0;" edge="1" parent="WIyWlLk6GJQsqaUBKTNV-1" source="e6tLD3ZkIUnjQeMoBUxM-3" target="e6tLD3ZkIUnjQeMoBUxM-6">
          <mxGeometry relative="1" as="geometry" />
        </mxCell>
        <mxCell id="e6tLD3ZkIUnjQeMoBUxM-24" value="NO" style="edgeLabel;html=1;align=center;verticalAlign=middle;resizable=0;points=[];" vertex="1" connectable="0" parent="e6tLD3ZkIUnjQeMoBUxM-22">
          <mxGeometry x="-0.1192" y="2" relative="1" as="geometry">
            <mxPoint as="offset" />
          </mxGeometry>
        </mxCell>
        <mxCell id="e6tLD3ZkIUnjQeMoBUxM-3" value="Do you see the word &quot;APPLE&quot;?" style="rhombus;whiteSpace=wrap;html=1;fillColor=#e1d5e7;strokeColor=#9673a6;" vertex="1" parent="WIyWlLk6GJQsqaUBKTNV-1">
          <mxGeometry x="117" y="410" width="166" height="80" as="geometry" />
        </mxCell>
        <mxCell id="e6tLD3ZkIUnjQeMoBUxM-27" value="" style="edgeStyle=orthogonalEdgeStyle;rounded=0;orthogonalLoop=1;jettySize=auto;html=1;exitX=0.75;exitY=1;exitDx=0;exitDy=0;" edge="1" parent="WIyWlLk6GJQsqaUBKTNV-1" source="e6tLD3ZkIUnjQeMoBUxM-6" target="e6tLD3ZkIUnjQeMoBUxM-9">
          <mxGeometry relative="1" as="geometry" />
        </mxCell>
        <mxCell id="e6tLD3ZkIUnjQeMoBUxM-29" value="YES" style="edgeLabel;html=1;align=center;verticalAlign=middle;resizable=0;points=[];" vertex="1" connectable="0" parent="e6tLD3ZkIUnjQeMoBUxM-27">
          <mxGeometry x="-0.0909" y="3" relative="1" as="geometry">
            <mxPoint as="offset" />
          </mxGeometry>
        </mxCell>
        <mxCell id="e6tLD3ZkIUnjQeMoBUxM-30" value="" style="edgeStyle=orthogonalEdgeStyle;rounded=0;orthogonalLoop=1;jettySize=auto;html=1;entryX=1;entryY=1;entryDx=0;entryDy=0;exitX=0.25;exitY=1;exitDx=0;exitDy=0;" edge="1" parent="WIyWlLk6GJQsqaUBKTNV-1" source="e6tLD3ZkIUnjQeMoBUxM-6" target="e6tLD3ZkIUnjQeMoBUxM-3">
          <mxGeometry relative="1" as="geometry">
            <Array as="points">
              <mxPoint x="340" y="570" />
              <mxPoint x="242" y="570" />
            </Array>
          </mxGeometry>
        </mxCell>
        <mxCell id="e6tLD3ZkIUnjQeMoBUxM-31" value="NO" style="edgeLabel;html=1;align=center;verticalAlign=middle;resizable=0;points=[];" vertex="1" connectable="0" parent="e6tLD3ZkIUnjQeMoBUxM-30">
          <mxGeometry x="-0.782" y="-2" relative="1" as="geometry">
            <mxPoint as="offset" />
          </mxGeometry>
        </mxCell>
        <mxCell id="e6tLD3ZkIUnjQeMoBUxM-6" value="Look for Section beginning with the letter &quot;A&quot;" style="rounded=1;whiteSpace=wrap;html=1;fillColor=#fff2cc;strokeColor=#d6b656;" vertex="1" parent="WIyWlLk6GJQsqaUBKTNV-1">
          <mxGeometry x="310" y="470" width="120" height="60" as="geometry" />
        </mxCell>
        <mxCell id="e6tLD3ZkIUnjQeMoBUxM-14" value="" style="edgeStyle=orthogonalEdgeStyle;rounded=0;orthogonalLoop=1;jettySize=auto;html=1;exitX=0.75;exitY=1;exitDx=0;exitDy=0;" edge="1" parent="WIyWlLk6GJQsqaUBKTNV-1" source="e6tLD3ZkIUnjQeMoBUxM-9" target="e6tLD3ZkIUnjQeMoBUxM-11">
          <mxGeometry relative="1" as="geometry" />
        </mxCell>
        <mxCell id="e6tLD3ZkIUnjQeMoBUxM-32" value="YES" style="edgeLabel;html=1;align=center;verticalAlign=middle;resizable=0;points=[];" vertex="1" connectable="0" parent="e6tLD3ZkIUnjQeMoBUxM-14">
          <mxGeometry x="-0.2889" relative="1" as="geometry">
            <mxPoint as="offset" />
          </mxGeometry>
        </mxCell>
        <mxCell id="e6tLD3ZkIUnjQeMoBUxM-9" value="Look for words starting with &quot;AP&quot;" style="rounded=1;whiteSpace=wrap;html=1;fillColor=#fff2cc;strokeColor=#d6b656;" vertex="1" parent="WIyWlLk6GJQsqaUBKTNV-1">
          <mxGeometry x="340" y="585" width="120" height="60" as="geometry" />
        </mxCell>
        <mxCell id="e6tLD3ZkIUnjQeMoBUxM-17" value="" style="edgeStyle=orthogonalEdgeStyle;rounded=0;orthogonalLoop=1;jettySize=auto;html=1;exitX=0.75;exitY=1;exitDx=0;exitDy=0;" edge="1" parent="WIyWlLk6GJQsqaUBKTNV-1" source="e6tLD3ZkIUnjQeMoBUxM-11" target="e6tLD3ZkIUnjQeMoBUxM-15">
          <mxGeometry relative="1" as="geometry" />
        </mxCell>
        <mxCell id="e6tLD3ZkIUnjQeMoBUxM-33" value="YES" style="edgeLabel;html=1;align=center;verticalAlign=middle;resizable=0;points=[];" vertex="1" connectable="0" parent="e6tLD3ZkIUnjQeMoBUxM-17">
          <mxGeometry y="2" relative="1" as="geometry">
            <mxPoint as="offset" />
          </mxGeometry>
        </mxCell>
        <mxCell id="e6tLD3ZkIUnjQeMoBUxM-11" value="Look for words starting with &quot;APP&quot;" style="rounded=1;whiteSpace=wrap;html=1;fillColor=#fff2cc;strokeColor=#d6b656;" vertex="1" parent="WIyWlLk6GJQsqaUBKTNV-1">
          <mxGeometry x="370" y="700" width="120" height="60" as="geometry" />
        </mxCell>
        <mxCell id="e6tLD3ZkIUnjQeMoBUxM-18" value="" style="edgeStyle=orthogonalEdgeStyle;rounded=0;orthogonalLoop=1;jettySize=auto;html=1;exitX=0.75;exitY=1;exitDx=0;exitDy=0;" edge="1" parent="WIyWlLk6GJQsqaUBKTNV-1" source="e6tLD3ZkIUnjQeMoBUxM-15" target="e6tLD3ZkIUnjQeMoBUxM-16">
          <mxGeometry relative="1" as="geometry" />
        </mxCell>
        <mxCell id="e6tLD3ZkIUnjQeMoBUxM-34" value="YES" style="edgeLabel;html=1;align=center;verticalAlign=middle;resizable=0;points=[];" vertex="1" connectable="0" parent="e6tLD3ZkIUnjQeMoBUxM-18">
          <mxGeometry x="-0.25" y="1" relative="1" as="geometry">
            <mxPoint as="offset" />
          </mxGeometry>
        </mxCell>
        <mxCell id="e6tLD3ZkIUnjQeMoBUxM-15" value="Look for words starting with &quot;APPL&quot;" style="rounded=1;whiteSpace=wrap;html=1;fillColor=#fff2cc;strokeColor=#d6b656;" vertex="1" parent="WIyWlLk6GJQsqaUBKTNV-1">
          <mxGeometry x="400" y="810" width="120" height="60" as="geometry" />
        </mxCell>
        <mxCell id="e6tLD3ZkIUnjQeMoBUxM-16" value="Look for words starting with &quot;APPLE&quot;" style="rounded=1;whiteSpace=wrap;html=1;fillColor=#fff2cc;strokeColor=#d6b656;" vertex="1" parent="WIyWlLk6GJQsqaUBKTNV-1">
          <mxGeometry x="430" y="920" width="120" height="60" as="geometry" />
        </mxCell>
        <mxCell id="e6tLD3ZkIUnjQeMoBUxM-35" value="" style="endArrow=classic;html=1;rounded=0;exitX=0.25;exitY=1;exitDx=0;exitDy=0;edgeStyle=orthogonalEdgeStyle;entryX=1;entryY=1;entryDx=0;entryDy=0;" edge="1" parent="WIyWlLk6GJQsqaUBKTNV-1" source="e6tLD3ZkIUnjQeMoBUxM-9" target="e6tLD3ZkIUnjQeMoBUxM-3">
          <mxGeometry width="50" height="50" relative="1" as="geometry">
            <mxPoint x="390" y="830" as="sourcePoint" />
            <mxPoint x="210" y="700" as="targetPoint" />
            <Array as="points">
              <mxPoint x="370" y="690" />
              <mxPoint x="242" y="690" />
            </Array>
          </mxGeometry>
        </mxCell>
        <mxCell id="e6tLD3ZkIUnjQeMoBUxM-36" value="NO" style="edgeLabel;html=1;align=center;verticalAlign=middle;resizable=0;points=[];" vertex="1" connectable="0" parent="e6tLD3ZkIUnjQeMoBUxM-35">
          <mxGeometry x="-0.8699" y="1" relative="1" as="geometry">
            <mxPoint as="offset" />
          </mxGeometry>
        </mxCell>
        <mxCell id="e6tLD3ZkIUnjQeMoBUxM-37" value="" style="endArrow=classic;html=1;rounded=0;exitX=0.25;exitY=1;exitDx=0;exitDy=0;entryX=1;entryY=1;entryDx=0;entryDy=0;edgeStyle=orthogonalEdgeStyle;" edge="1" parent="WIyWlLk6GJQsqaUBKTNV-1" source="e6tLD3ZkIUnjQeMoBUxM-11" target="e6tLD3ZkIUnjQeMoBUxM-3">
          <mxGeometry width="50" height="50" relative="1" as="geometry">
            <mxPoint x="390" y="830" as="sourcePoint" />
            <mxPoint x="440" y="780" as="targetPoint" />
            <Array as="points">
              <mxPoint x="400" y="800" />
              <mxPoint x="242" y="800" />
            </Array>
          </mxGeometry>
        </mxCell>
        <mxCell id="e6tLD3ZkIUnjQeMoBUxM-38" value="NO" style="edgeLabel;html=1;align=center;verticalAlign=middle;resizable=0;points=[];" vertex="1" connectable="0" parent="e6tLD3ZkIUnjQeMoBUxM-37">
          <mxGeometry x="-0.9243" y="1" relative="1" as="geometry">
            <mxPoint as="offset" />
          </mxGeometry>
        </mxCell>
        <mxCell id="e6tLD3ZkIUnjQeMoBUxM-39" value="" style="endArrow=classic;html=1;rounded=0;exitX=0.25;exitY=1;exitDx=0;exitDy=0;entryX=1;entryY=1;entryDx=0;entryDy=0;edgeStyle=orthogonalEdgeStyle;" edge="1" parent="WIyWlLk6GJQsqaUBKTNV-1" source="e6tLD3ZkIUnjQeMoBUxM-15" target="e6tLD3ZkIUnjQeMoBUxM-3">
          <mxGeometry width="50" height="50" relative="1" as="geometry">
            <mxPoint x="390" y="830" as="sourcePoint" />
            <mxPoint x="440" y="780" as="targetPoint" />
            <Array as="points">
              <mxPoint x="430" y="910" />
              <mxPoint x="242" y="910" />
            </Array>
          </mxGeometry>
        </mxCell>
        <mxCell id="e6tLD3ZkIUnjQeMoBUxM-40" value="NO" style="edgeLabel;html=1;align=center;verticalAlign=middle;resizable=0;points=[];" vertex="1" connectable="0" parent="e6tLD3ZkIUnjQeMoBUxM-39">
          <mxGeometry x="-0.9282" y="1" relative="1" as="geometry">
            <mxPoint as="offset" />
          </mxGeometry>
        </mxCell>
        <mxCell id="e6tLD3ZkIUnjQeMoBUxM-42" value="" style="endArrow=classic;html=1;rounded=0;exitX=0.5;exitY=1;exitDx=0;exitDy=0;entryX=1;entryY=1;entryDx=0;entryDy=0;edgeStyle=orthogonalEdgeStyle;" edge="1" parent="WIyWlLk6GJQsqaUBKTNV-1" source="e6tLD3ZkIUnjQeMoBUxM-16" target="e6tLD3ZkIUnjQeMoBUxM-3">
          <mxGeometry width="50" height="50" relative="1" as="geometry">
            <mxPoint x="390" y="830" as="sourcePoint" />
            <mxPoint x="440" y="780" as="targetPoint" />
            <Array as="points">
              <mxPoint x="490" y="1020" />
              <mxPoint x="242" y="1020" />
            </Array>
          </mxGeometry>
        </mxCell>
        <mxCell id="e6tLD3ZkIUnjQeMoBUxM-43" value="YES" style="edgeLabel;html=1;align=center;verticalAlign=middle;resizable=0;points=[];" vertex="1" connectable="0" parent="e6tLD3ZkIUnjQeMoBUxM-42">
          <mxGeometry x="-0.9571" relative="1" as="geometry">
            <mxPoint as="offset" />
          </mxGeometry>
        </mxCell>
      </root>
    </mxGraphModel>
  </diagram>
</mxfile>
